<svg width="18" height="18" xmlns="http://www.w3.org/2000/svg" xmlns:xlink="http://www.w3.org/1999/xlink" xmlns:svgjs="http://svgjs.com/svgjs" fill="#bb9c66"><svg xmlns="http://www.w3.org/2000/svg" width="18" height="18" viewBox="1.013 1.999 16.988 16.988"><path paint-order="stroke fill markers" fill-rule="evenodd" d="M11.327 3.82l4.854 4.853-2.427 2.427L8.9 6.246l2.427-2.427zm6.067 4.853l.607.607-3.64 3.64-.607-.607 3.64-3.64zM1.62 15.953l2.427 2.428-.606.607-2.427-2.427.606-.607zM10.72 2l.607.607-3.64 3.64-.607-.607L10.72 2zM9.507 8.067l2.427 2.426-.607.607L8.9 8.673l.607-.606zM3.44 14.133l2.426 2.428-.606.606-2.427-2.426.607-.608zm6.674-5.46l1.213 1.214-7.28 7.28-1.214-1.213 7.28-7.281z"/></svg></svg>