<svg width="17" height="16" xmlns="http://www.w3.org/2000/svg" xmlns:xlink="http://www.w3.org/1999/xlink" xmlns:svgjs="http://svgjs.com/svgjs" viewBox="1319 109 17 16"><svg width="16" height="15" xmlns="http://www.w3.org/2000/svg" xmlns:xlink="http://www.w3.org/1999/xlink" xmlns:svgjs="http://svgjs.com/svgjs" viewBox="0 0.035 16 14.93" fill="#bb9c66" x="1320" y="109"><svg xmlns="http://www.w3.org/2000/svg" xmlns:xlink="http://www.w3.org/1999/xlink" width="16" height="15" viewBox="2.05 1 14.95 13.95"><path paint-order="stroke fill markers" fill-rule="evenodd" d="M6 11c.781.781.246 2.584-.535 3.364a2 2 0 1 1-2.829-2.828C3.417 10.755 5.22 10.219 6 11zm3-1L7 8l7-7 2 2-7 7zm5-7l1-1 2 2-1 1-2-2zm-2 2l1-1 2 2-1 1-2-2z"/></svg></svg><svg width="12" height="12" xmlns="http://www.w3.org/2000/svg" xmlns:xlink="http://www.w3.org/1999/xlink" xmlns:svgjs="http://svgjs.com/svgjs" fill="none" stroke-miterlimit="100" stroke="#fff" stroke-width="2" x="1319" y="113"><svg xmlns="http://www.w3.org/2000/svg" width="12" height="12" viewBox="1.757 1 10.243 10.243"><path paint-order="stroke fill markers" d="M6.879 1.879C8.05 3.05 9.172 5.829 8 7c-1.172 1.172-4.192.294-5.364-.878A3 3 0 0 1 6.88 1.879zm4.242 4.243a3 3 0 1 1-4.242 4.242C5.707 9.193 4.829 6.172 6 5c1.172-1.171 3.95-.05 5.121 1.122z"/></svg></svg></svg>