<svg width="11" height="14" xmlns="http://www.w3.org/2000/svg" xmlns:xlink="http://www.w3.org/1999/xlink" xmlns:svgjs="http://svgjs.com/svgjs" viewBox="0.096 0 10.809 14" fill="#bb9c66"><svg xmlns="http://www.w3.org/2000/svg" width="11" height="14" viewBox="1 1.001 10.093 13.073"><path paint-order="stroke fill markers" fill-rule="evenodd" d="M4.42 7.501c1.89 0 4.105-.619 4.105 1.624 0 2.245-1.531 4.876-3.42 4.876C3.215 14 1 11.37 1 9.125c0-2.243 1.532-1.624 3.42-1.624zM1.685 3.438c.378 0 .684.364.684.813v4.874c0 .45-.306.813-.684.813-.377 0-.684-.363-.684-.813V4.251c0-.449.307-.813.684-.813zm2.053-1.625c.377 0 .684.364.684.813v6.5c0 .449-.307.812-.684.812-.378 0-.685-.363-.685-.813v-6.5c0-.448.307-.812.685-.812zm2.052-.812c.378 0 .684.363.684.812v7.312c0 .45-.306.813-.684.813-.378 0-.684-.363-.684-.813V1.813c0-.449.306-.812.684-.812zM7.84 2.626c.378 0 .684.364.684.812v5.687c0 .45-.306.813-.684.813-.378 0-.684-.363-.684-.813V3.438c0-.448.306-.812.684-.812zM5.001 9l3.231-.366c.4-.475 2.367-2.11 2.768-1.633.4.476-.6 2.524-1 3l-3 4c-.4.476-1.6-1.524-2-2-.4-.476-.4-2.524 0-3z"/></svg></svg>